HIERARCHY
ROOT hip
{
	OFFSET 0.000000 0.000000 0.000000 
	CHANNELS 6 Xposition Yposition Zposition Xrotation Zrotation Yrotation
	JOINT abdomen
	{
		OFFSET 0.000000 3.402643 0.000000 
		CHANNELS 3 Xrotation Zrotation Yrotation
		JOINT chest
		{
			OFFSET 0.000000 8.438565 -0.680529 
			CHANNELS 3 Xrotation Zrotation Yrotation
			JOINT neck
			{
				OFFSET 0.000000 10.207942 -0.272212 
				CHANNELS 3 Xrotation Zrotation Yrotation
				JOINT head
				{
					OFFSET 0.000000 3.130431 0.000000 
					CHANNELS 3 Xrotation Zrotation Yrotation
					End Site
					{
						OFFSET 0.000000 3.130435 0.000000 
					}
				}
			}
			JOINT lCollar
			{
				OFFSET 3.470700 6.669187 -0.816635 
				CHANNELS 3 Yrotation Zrotation Xrotation
				JOINT lShldr
				{
					OFFSET 3.198488 0.000000 0.000000 
					CHANNELS 3 Zrotation Yrotation Xrotation
					JOINT lForeArm
					{
						OFFSET 10.139888 0.000000 0.000000 
						CHANNELS 3 Yrotation Zrotation Xrotation
						JOINT lHand
						{
							OFFSET 8.370511 0.000000 0.000000 
							CHANNELS 3 Zrotation Yrotation Xrotation
							End Site
							{
								OFFSET 4.083176 0.000000 0.000000 
							}
						}
					}
				}
			}
			JOINT rCollar
			{
				OFFSET -3.470700 6.669187 -0.816635 
				CHANNELS 3 Yrotation Zrotation Xrotation
				JOINT rShldr
				{
					OFFSET -3.198488 0.000000 0.000000 
					CHANNELS 3 Zrotation Yrotation Xrotation
					JOINT rForeArm
					{
						OFFSET -10.139888 0.000000 0.000000 
						CHANNELS 3 Yrotation Zrotation Xrotation
						JOINT rHand
						{
							OFFSET -8.370511 0.000000 0.000000 
							CHANNELS 3 Zrotation Yrotation Xrotation
							End Site
							{
								OFFSET -4.083176 0.000000 0.000000 
							}
						}
					}
				}
			}
		}
	}
	JOINT lThigh
	{
		OFFSET 5.308129 -1.633274 1.361059 
		CHANNELS 3 Xrotation Zrotation Yrotation
		JOINT lShin
		{
			OFFSET -2.041588 -20.007561 0.000000 
			CHANNELS 3 Xrotation Zrotation Yrotation
			JOINT lFoot
			{
				OFFSET 0.000000 -19.190928 -1.224953 
				CHANNELS 3 Xrotation Yrotation Zrotation
				End Site
				{
					OFFSET 0.000000 -2.449906 4.627600 
				}
			}
		}
	}
	JOINT rThigh
	{
		OFFSET -5.308129 -1.633274 1.361059 
		CHANNELS 3 Xrotation Zrotation Yrotation
		JOINT rShin
		{
			OFFSET 2.041588 -20.007561 0.000000 
			CHANNELS 3 Xrotation Zrotation Yrotation
			JOINT rFoot
			{
				OFFSET 0.000000 -19.190928 -1.224953 
				CHANNELS 3 Xrotation Yrotation Zrotation
				End Site
				{
					OFFSET 0.000000 -2.449906 4.627600 
				}
			}
		}
	}
}
MOTION
Frames: 9
Frame Time: 0.033333
-54.855831 6.841364 -45.598869 6.796875 -10.654297 64.814453 8.261718 -1.806641 -1.357422 11.933594 9.287109 -0.154674 -8.447267 0.000000 0.000000 -4.550781 -8.740234 21.142578 -2.812500 -0.087891 -0.009766 -81.191406 -1.367188 -10.361329 -58.359375 -40.625000 -1.660156 52.900391 -46.728516 -13.630157 2.802734 0.078125 -0.009779 63.964844 11.279297 -6.638715 58.349609 24.306643 3.462776 -49.189453 44.550781 12.243180 -32.522274 18.441467 10.267560 28.236858 -4.307598 0.677917 3.744823 -9.666186 -21.554546 -4.269599 -25.248569 -28.060404 22.607357 6.380281 11.092857 -14.740197 4.919134 11.476408 
-54.844505 6.613738 -45.664249 7.187500 -12.041016 67.569061 8.261718 -1.806641 -1.357422 13.974608 11.093750 -1.464844 -8.447267 0.000000 0.000000 -9.052735 -9.736328 21.308594 -2.812500 -0.087891 -0.009766 -80.556641 -3.271484 -9.482422 -59.052738 -40.625000 -2.109375 51.484375 -46.669922 -12.919922 2.802734 0.078125 -0.009779 59.335938 11.093750 -11.591797 58.583981 24.306643 3.007813 -50.146484 45.000000 12.116280 -36.550076 18.777414 8.868876 30.175724 -4.482586 0.663081 3.587267 -10.862240 -22.525312 -5.149188 -26.671394 -26.181759 24.309431 6.097583 11.220374 -17.763769 5.525192 12.890180 
-54.815948 6.320740 -45.766674 7.216797 -13.261720 70.712891 8.261718 -1.806641 -1.357422 15.527344 13.056640 -2.536856 -8.447267 0.000000 0.000000 -13.417969 -10.791016 22.031250 -2.812500 -0.087891 -0.009766 -80.166016 -3.779297 -8.955078 -59.306641 -40.800781 -2.382813 50.234371 -46.601566 -12.402344 2.802734 0.078125 -0.009779 54.550781 10.380860 -16.181641 57.392578 23.642574 3.408203 -51.328125 43.662109 11.481352 -41.362476 19.411261 7.409058 32.328941 -4.410863 0.834101 2.729240 -11.258076 -22.813007 -5.665480 -27.730247 -25.050781 26.249283 5.326552 11.752108 -20.926971 5.787484 13.375162 
-54.761906 5.828439 -45.926090 7.050781 -13.789063 74.033195 8.261718 -1.806641 -1.357422 17.089844 14.638673 -3.261719 -8.447267 0.000000 0.000000 -17.431641 -11.425781 22.351580 -2.812500 -0.087891 -0.009766 -79.628906 -3.750000 -8.427733 -58.808590 -40.468750 -2.298348 49.189453 -46.689457 -12.233668 2.802734 0.078125 -0.009779 50.458984 9.716797 -20.603821 54.423828 22.519529 4.322432 -51.767582 40.791016 10.488281 -46.369484 20.347275 6.165421 33.952038 -4.239964 0.933044 2.048298 -10.855127 -22.054029 -5.674541 -28.767258 -23.833918 27.976595 4.633293 11.745380 -24.738966 5.970298 14.298038 
-54.679420 5.162671 -46.054127 6.513672 -13.808594 77.324219 8.261718 -1.806641 -1.357422 18.837891 15.849609 -3.603516 -8.447267 0.000000 0.000000 -21.103516 -11.992188 22.527269 -2.812500 -0.087891 -0.009766 -78.798828 -2.656250 -8.057094 -58.632816 -40.820313 -2.285157 49.326172 -45.439453 -12.451173 2.802734 0.078125 -0.009779 47.402348 8.925781 -24.197704 50.253906 20.664063 5.478515 -52.089844 36.875000 8.892578 -51.118690 21.403967 5.265534 34.527718 -3.888235 1.182610 1.268427 -9.974549 -21.490091 -4.084066 -29.485294 -23.297361 29.116850 3.930381 11.836115 -29.266294 6.300198 14.031181 
-54.431858 4.459851 -46.244812 5.947266 -13.115233 80.546875 8.261718 -1.806641 -1.357422 20.078125 17.070313 -3.505860 -8.447267 0.000000 0.000000 -24.072268 -12.539062 22.421875 -2.812500 -0.087891 -0.009766 -77.646484 -0.839844 -7.519514 -57.402344 -40.673828 -1.523437 50.166016 -44.130863 -12.851563 2.802734 0.078125 -0.009779 45.214844 7.812500 -26.922497 45.507816 19.423828 7.057299 -52.041016 32.285160 6.196622 -55.222240 22.059591 4.322716 34.225151 -3.561728 1.825174 -0.056916 -9.270991 -20.333244 -1.642073 -30.163437 -23.684923 29.175501 3.578551 11.407821 -32.921329 5.752218 14.065402 
-53.982265 3.765646 -46.532146 5.576172 -12.431642 82.976410 8.261718 -1.806641 -1.357422 20.292969 17.373047 -3.339844 -8.447267 0.000000 0.000000 -25.048830 -12.998047 21.796875 -2.812500 -0.087891 -0.009766 -76.787109 3.251953 -7.509766 -54.179688 -39.902344 0.807044 51.347656 -43.847656 -13.727467 2.802734 0.078125 -0.009779 45.273438 5.878907 -26.581032 40.751953 17.988279 8.620030 -50.244141 27.314453 3.544922 -58.243736 22.954962 4.085059 32.902325 -3.018170 2.929887 -1.442092 -7.627501 -17.838993 1.298363 -29.911707 -24.664888 29.204075 3.402745 11.018856 -35.598026 4.403218 13.755654 
-53.086040 3.142591 -47.044281 5.039062 -12.441405 85.908203 8.261718 -1.806641 -1.357422 19.560549 17.451172 -3.375977 -8.447267 0.000000 0.000000 -25.654297 -13.359375 20.437195 -2.812500 -0.087891 -0.009766 -75.126953 9.130858 -7.166419 -51.250000 -39.140625 3.066407 52.304688 -43.232422 -14.472657 2.802734 0.078125 -0.009779 47.060543 3.632813 -24.023438 37.587894 16.806643 9.421004 -47.324219 22.978518 2.099610 -59.614834 23.279030 4.868621 30.974566 -3.009198 3.426889 -2.353220 -6.067175 -15.842183 4.321621 -29.466707 -24.894058 29.205038 3.402716 10.679315 -34.644478 3.429709 12.474229 
-51.939415 2.855144 -47.735764 4.863281 -12.617188 88.388672 8.261718 -1.806641 -1.357422 18.281252 17.578127 -3.209941 -8.447267 0.000000 0.000000 -25.595701 -14.121095 18.981995 -2.812500 -0.087891 -0.009766 -73.320313 15.732422 -6.345006 -48.583984 -38.408203 5.527343 52.832031 -43.193359 -14.830898 2.802734 0.078125 -0.009779 49.384769 0.878906 -20.429539 36.201176 16.523436 10.046051 -44.052734 20.253906 1.875000 -60.264439 23.344763 6.002523 28.864632 -2.833148 3.955224 -1.537676 -5.501916 -14.786111 6.942121 -29.285641 -25.799725 30.347593 2.689817 9.883723 -30.654148 3.243984 11.346825 
